<svg width="37" height="37" viewBox="0 0 37 37" fill="none" xmlns="http://www.w3.org/2000/svg">
<path fill-rule="evenodd" clip-rule="evenodd" d="M22.1009 13.1C21.6235 13.1 21.1657 12.9104 20.8281 12.5728C20.4906 12.2352 20.3009 11.7774 20.3009 11.3C20.3009 10.8226 20.4906 10.3648 20.8281 10.0272C21.1657 9.68964 21.6235 9.5 22.1009 9.5H31.1009C31.5783 9.5 32.0362 9.68964 32.3737 10.0272C32.7113 10.3648 32.9009 10.8226 32.9009 11.3V20.3C32.9009 20.7774 32.7113 21.2352 32.3737 21.5728C32.0362 21.9104 31.5783 22.1 31.1009 22.1C30.6235 22.1 30.1657 21.9104 29.8281 21.5728C29.4906 21.2352 29.3009 20.7774 29.3009 20.3V15.6452L21.5735 23.3726C21.236 23.71 20.7782 23.8996 20.3009 23.8996C19.8236 23.8996 19.3659 23.71 19.0283 23.3726L14.9009 19.2452L7.17353 26.9726C6.83404 27.3005 6.37936 27.4819 5.90741 27.4778C5.43545 27.4737 4.98399 27.2844 4.65025 26.9507C4.31652 26.6169 4.12722 26.1655 4.12311 25.6935C4.11901 25.2216 4.30044 24.7669 4.62833 24.4274L13.6283 15.4274C13.9659 15.09 14.4236 14.9004 14.9009 14.9004C15.3782 14.9004 15.836 15.09 16.1735 15.4274L20.3009 19.5548L26.7557 13.1H22.1009Z" fill="#00BFA6"/>
</svg>
