<svg width="37" height="36" viewBox="0 0 37 36" fill="none" xmlns="http://www.w3.org/2000/svg">
<path fill-rule="evenodd" clip-rule="evenodd" d="M22.1009 12.6C21.6235 12.6 21.1657 12.4104 20.8281 12.0728C20.4906 11.7352 20.3009 11.2774 20.3009 10.8C20.3009 10.3226 20.4906 9.86477 20.8281 9.52721C21.1657 9.18964 21.6235 9 22.1009 9H31.1009C31.5783 9 32.0362 9.18964 32.3737 9.52721C32.7113 9.86477 32.9009 10.3226 32.9009 10.8V19.8C32.9009 20.2774 32.7113 20.7352 32.3737 21.0728C32.0362 21.4104 31.5783 21.6 31.1009 21.6C30.6235 21.6 30.1657 21.4104 29.8281 21.0728C29.4906 20.7352 29.3009 20.2774 29.3009 19.8V15.1452L21.5735 22.8726C21.236 23.21 20.7782 23.3996 20.3009 23.3996C19.8236 23.3996 19.3659 23.21 19.0283 22.8726L14.9009 18.7452L7.17353 26.4726C6.83404 26.8005 6.37936 26.9819 5.90741 26.9778C5.43545 26.9737 4.98399 26.7844 4.65025 26.4507C4.31652 26.1169 4.12722 25.6655 4.12311 25.1935C4.11901 24.7216 4.30044 24.2669 4.62833 23.9274L13.6283 14.9274C13.9659 14.59 14.4236 14.4004 14.9009 14.4004C15.3782 14.4004 15.836 14.59 16.1735 14.9274L20.3009 19.0548L26.7557 12.6H22.1009Z" fill="white"/>
</svg>
