<svg width="180" height="180" viewBox="0 0 180 180" fill="none" xmlns="http://www.w3.org/2000/svg">
<g clip-path="url(#clip0_1111_2466)">
<path d="M91.6084 117.5C107.744 117.5 120.824 104.42 120.824 88.2844C120.824 72.1489 107.744 59.0685 91.6084 59.0685C75.4729 59.0685 62.3926 72.1489 62.3926 88.2844C62.3926 104.42 75.4729 117.5 91.6084 117.5Z" fill="#A0616A"/>
<path d="M67.4258 124.042L73.516 108.478L104.982 103.741L108.363 138.194L76.5585 138.871L67.4258 124.042Z" fill="#A0616A"/>
<path d="M121.108 93.6749C120.729 95.1939 119.962 98.8109 118.765 98.8287C117.788 98.8429 116.852 83.1515 117.828 80.5561C118.95 77.5743 116.002 73.8025 113.78 71.8663C109.786 68.3849 100.921 75.8603 91.9059 72.4739C91.6669 72.3843 91.7145 72.3944 88.8678 71.2586C80.1081 67.7636 79.6477 67.6627 79.1458 67.6129C74.8994 67.1928 69.7171 70.6676 67.6009 74.9044C65.4011 79.3084 67.2391 83.0859 65.1705 93.7407C64.9294 94.9826 64.5508 96.7527 63.9552 96.7788C62.8663 96.8263 61.8032 91.0106 61.5247 89.4873C60.3581 83.1055 59.2334 76.9527 61.5247 70.0434C61.7747 69.2898 63.3151 66.4926 66.3857 60.929C70.8094 52.9142 73.0343 48.8917 73.6772 48.1689C78.2884 42.9833 86.6818 38.2529 93.7288 40.2698C97.2906 41.2892 96.6519 42.9282 101.02 44.5232C108.805 47.3655 115.571 43.8894 116.818 46.346C117.48 47.6473 115.63 48.7202 115.603 51.207C115.557 55.474 120.954 56.7071 124.11 60.929C125.807 63.1987 128.711 63.2231 121.108 93.6749Z" fill="#2F2E41"/>
<path d="M157.304 149.755C156.126 151.078 154.905 152.374 153.639 153.64C136.641 170.638 114.039 180 89.9998 180C69.2221 180 49.5202 173.006 33.5807 160.132C33.5705 160.126 33.5637 160.119 33.5537 160.109C31.439 158.404 29.392 156.59 27.416 154.675C27.4532 154.377 27.4938 154.083 27.5378 153.792C27.8152 151.829 28.1232 149.958 28.4682 148.236C31.2934 134.12 68.4675 119.301 69.4352 118.915C69.4487 118.912 69.4555 118.908 69.4555 118.908C69.4555 118.908 74.2397 136.543 94.7401 136.316C108.704 136.164 105.997 118.908 105.997 118.908C105.997 118.908 106.166 118.942 106.484 119.01C110.517 119.866 138.519 126.017 149.566 134.412C152.932 136.969 155.348 142.417 157.084 148.913C157.158 149.19 157.229 149.475 157.304 149.755Z" fill="#6C63FF"/>
<path d="M153.639 26.3606C136.641 9.36233 114.039 0 90 0C65.9605 0 43.3591 9.36233 26.3605 26.3606C9.36209 43.3592 0 65.9606 0 90C0 111.942 7.79889 132.686 22.0906 149.065C23.4542 150.632 24.8786 152.158 26.3605 153.64C26.709 153.988 27.0609 154.337 27.4162 154.675C29.3921 156.59 31.4392 158.404 33.5538 160.109C33.5639 160.119 33.5707 160.126 33.5808 160.132C49.5203 173.006 69.2222 180 90 180C114.039 180 136.641 170.638 153.639 153.64C154.905 152.374 156.126 151.078 157.304 149.755C171.978 133.271 180 112.253 180 90C180 65.9606 170.638 43.3592 153.639 26.3606ZM157.084 148.913C154.421 151.941 151.559 154.79 148.514 157.433C142.738 162.457 136.309 166.747 129.377 170.165C126.944 171.366 124.45 172.458 121.899 173.436C111.989 177.239 101.233 179.323 90 179.323C79.1594 179.323 68.7654 177.381 59.1463 173.829C55.1977 172.374 51.3812 170.645 47.7169 168.665C47.1789 168.375 46.6444 168.08 46.1132 167.779C43.3184 166.196 40.615 164.467 38.02 162.599C34.3015 159.933 30.7962 156.986 27.5379 153.792C25.7109 152.002 23.9651 150.138 22.297 148.199C8.82747 132.554 0.676692 112.213 0.676692 90C0.676692 40.7472 40.747 0.676692 90 0.676692C139.253 0.676692 179.323 40.7472 179.323 90C179.323 112.554 170.922 133.18 157.084 148.913Z" fill="#3F3D56"/>
</g>
<defs>
<clipPath id="clip0_1111_2466">
<rect width="180" height="180" fill="white"/>
</clipPath>
</defs>
</svg>

