<svg width="297" height="163" viewBox="0 0 297 163" fill="none" xmlns="http://www.w3.org/2000/svg">
<g clip-path="url(#clip0_1059_2367)">
<path d="M45.2318 139.278C38.6474 144.186 36.7812 152.822 36.7812 152.822C36.7812 152.822 45.5906 153.5 52.1751 148.592C58.7595 143.683 60.6256 135.047 60.6256 135.047C60.6256 135.047 51.8162 134.369 45.2318 139.278Z" fill="#00BFA6"/>
<path d="M47.9756 141.581C44.811 149.159 36.8855 153.065 36.8855 153.065C36.8855 153.065 34.0907 144.683 37.2553 137.104C40.4198 129.526 48.3453 125.621 48.3453 125.621C48.3453 125.621 51.1401 134.002 47.9756 141.581Z" fill="#00BFA6"/>
<path d="M237.414 119.674C236.714 114.961 236.529 110.186 236.862 105.434L237.414 97.5682C234.376 103.612 235.063 111.566 237.414 119.674Z" fill="white"/>
<path d="M239.785 120.989C239.448 118.177 239.359 115.34 239.519 112.513L239.785 107.831C238.323 111.428 238.654 116.163 239.785 120.989Z" fill="white"/>
<path d="M250.312 126.779V129.411C250.31 129.62 250.227 129.82 250.079 129.968C249.931 130.115 249.731 130.199 249.522 130.2H248.206C248.172 130.2 248.137 130.207 248.105 130.22C248.073 130.233 248.044 130.252 248.02 130.277C247.995 130.301 247.976 130.33 247.963 130.362C247.95 130.394 247.943 130.429 247.943 130.463V152.042C247.942 152.251 247.858 152.452 247.711 152.599C247.563 152.747 247.363 152.831 247.154 152.832H231.101C230.891 152.832 230.691 152.748 230.543 152.6C230.395 152.452 230.311 152.252 230.311 152.042V130.463C230.311 130.393 230.283 130.327 230.234 130.277C230.185 130.228 230.118 130.2 230.048 130.2H228.469C228.26 130.2 228.059 130.117 227.911 129.969C227.763 129.821 227.68 129.62 227.68 129.411V126.779C227.68 126.675 227.7 126.573 227.739 126.477C227.779 126.381 227.837 126.294 227.911 126.22C227.984 126.147 228.071 126.089 228.167 126.049C228.263 126.01 228.365 125.989 228.469 125.989H249.522C249.731 125.99 249.932 126.073 250.08 126.221C250.227 126.369 250.311 126.57 250.312 126.779Z" fill="#2F2E41"/>
<path d="M247.968 130.753H230.336V131.543H247.968V130.753Z" fill="#00BFA6"/>
<path d="M247.942 142.369C242.042 144.811 236.077 144.838 230.047 142.369V136.807C235.853 134.858 242.136 134.858 247.942 136.807V142.369Z" fill="#00BFA6"/>
<path d="M149.116 57.3291C162.287 57.3291 172.964 46.652 172.964 33.4811C172.964 20.3102 162.287 9.63309 149.116 9.63309C135.945 9.63309 125.268 20.3102 125.268 33.4811C125.268 46.652 135.945 57.3291 149.116 57.3291Z" fill="#FEB8B8"/>
<path d="M171.389 12.907C167.824 7.11724 162.243 2.851 155.72 0.929505L152.793 3.06598V0.29183C151.226 0.0520854 149.641 -0.0402711 148.057 0.0159752L145.531 2.30141V0.20585C141.791 0.67058 138.188 1.90514 134.949 3.8317C131.71 5.75825 128.906 8.33499 126.712 11.3995C121.227 19.3072 120.301 30.3086 125.696 38.2798C127.177 33.7283 128.975 29.4576 130.456 24.9065C131.62 25.0652 132.8 25.0709 133.966 24.9235L135.767 20.7191L136.271 24.7456C141.856 24.2592 150.14 23.1907 155.434 22.2119L154.919 19.1228L158 21.6897C159.622 21.3163 160.585 20.9775 160.505 20.7187C164.443 27.0669 169.262 31.1215 173.2 37.4697C174.695 28.5183 176.417 21.0754 171.389 12.907Z" fill="#2F2E41"/>
<path d="M200.405 94.8073C199.585 89.8736 198.739 84.8453 196.446 80.4008C194.939 77.4896 192.547 74.7154 189.322 74.1398C188.687 74.0832 188.062 73.9387 187.467 73.7104C186.522 73.2552 173.824 66.0067 171.806 64.7442C170.073 63.6604 167.338 61.6536 165.959 61.6536C164.571 61.6231 159.25 62.8615 138.484 61.2381C138.484 61.2381 132.779 63.4868 128.364 66.2135C128.297 66.1694 106.81 77.708 106.003 77.6776C104.474 77.6133 103.053 78.5921 102.177 79.8247C101.3 81.0573 100.889 82.5833 100.459 84.0586C105.152 94.5103 109.446 104.975 114.14 115.427C114.36 115.821 114.476 116.263 114.479 116.714C114.385 117.182 114.185 117.622 113.895 118.002C111.594 121.699 111.667 126.349 111.918 130.695C112.17 135.041 112.481 139.631 110.539 143.526C110.011 144.595 109.324 145.574 108.821 146.644C107.645 149.066 107.22 156.812 107.907 159.414L194.004 161.881C192.153 156.792 200.405 94.8073 200.405 94.8073Z" fill="#6C63FF"/>
<path d="M93.0182 115.89C92.8464 117.132 92.8291 118.392 92.9667 119.639L94.2007 137.36C94.3166 139.031 94.4306 140.697 94.5874 142.363C94.8834 145.596 95.3257 148.804 95.8747 152.007C95.8871 152.462 96.0794 152.893 96.4094 153.206C96.7395 153.519 97.1803 153.689 97.6351 153.677C103.067 154.827 108.679 154.781 114.223 154.468C122.683 153.995 144.325 153.102 145.648 151.385C146.97 149.667 146.199 146.889 144.475 145.5C142.751 144.111 114.19 140.725 114.19 140.725C114.47 138.513 115.311 136.431 116.11 134.331C117.544 130.607 118.884 126.761 118.91 122.771C118.936 118.782 117.433 114.588 114.165 112.302C111.477 110.426 108.015 110.078 104.74 110.155C102.356 110.224 98.2383 109.653 96.0613 110.585C94.3386 111.343 93.34 114.203 93.0182 115.89Z" fill="#FBBEBE"/>
<path d="M100.211 84.3757C99.7926 84.8137 99.4683 85.3324 99.2578 85.9003C95.7868 93.7228 93.7366 102.101 93.2033 110.642C93.2126 111.059 93.1166 111.471 92.9242 111.841C92.7344 112.086 92.5232 112.315 92.2929 112.523C92.0922 112.761 91.9403 113.036 91.8459 113.333C91.7516 113.63 91.7165 113.942 91.7429 114.252C91.7692 114.562 91.8563 114.864 91.9994 115.141C92.1424 115.417 92.3385 115.663 92.5764 115.864C92.6154 115.896 92.6555 115.928 92.6966 115.958C93.4051 114.625 95.1011 114.189 96.6087 114.074C103.827 113.503 110.878 116.861 118.117 116.607C117.607 114.842 116.872 113.146 116.455 111.36C114.613 103.429 119.208 94.7937 116.391 87.1544C115.828 85.6257 114.888 84.1228 113.407 83.4529C112.793 83.2055 112.152 83.0356 111.496 82.9472C109.667 82.6166 106.025 81.2038 104.256 81.7707C103.603 81.9813 103.346 82.595 102.805 82.9661C101.983 83.4911 100.892 83.6842 100.211 84.3757Z" fill="#6C63FF"/>
<path d="M200.456 110.585C198.279 109.653 194.161 110.224 191.777 110.155C188.501 110.078 185.04 110.426 182.352 112.302C179.084 114.588 177.581 118.782 177.607 122.771C177.633 126.761 178.972 130.607 180.407 134.331C181.205 136.431 182.047 138.513 182.326 140.725C182.326 140.725 153.766 144.111 152.042 145.5C150.318 146.889 149.547 149.667 150.869 151.384C152.192 153.102 193.45 154.827 198.882 153.677C199.337 153.689 199.777 153.519 200.107 153.206C200.437 152.893 200.63 152.462 200.642 152.007C201.191 148.804 201.633 145.596 201.929 142.363C202.086 140.697 202.2 139.03 202.316 137.36L203.55 119.639C203.688 118.392 203.67 117.132 203.499 115.89C203.177 114.203 202.178 111.343 200.456 110.585Z" fill="#FBBEBE"/>
<path d="M193.711 82.9661C193.17 82.5951 192.912 81.9813 192.26 81.7707C190.491 81.2039 186.849 82.6167 185.02 82.9472C184.364 83.0357 183.722 83.2056 183.109 83.453C181.628 84.1228 180.688 85.6258 180.125 87.1545C177.308 94.7937 181.903 103.429 180.06 111.36C179.644 113.146 178.909 114.842 178.398 116.607C185.638 116.861 192.689 113.503 199.907 114.074C201.415 114.189 203.111 114.625 203.819 115.959C203.86 115.928 203.9 115.897 203.939 115.864C204.177 115.663 204.374 115.417 204.517 115.141C204.66 114.864 204.747 114.562 204.773 114.252C204.799 113.942 204.764 113.63 204.67 113.333C204.576 113.036 204.424 112.761 204.223 112.523C203.993 112.315 203.782 112.086 203.592 111.841C203.399 111.471 203.303 111.059 203.313 110.642C202.779 102.101 200.729 93.7228 197.258 85.9003C197.048 85.3325 196.723 84.8137 196.305 84.3757C195.624 83.6842 194.533 83.4912 193.711 82.9661Z" fill="#6C63FF"/>
<path d="M142.052 154.524C145.607 154.524 148.488 151.643 148.488 148.088C148.488 144.533 145.607 141.651 142.052 141.651C138.497 141.651 135.615 144.533 135.615 148.088C135.615 151.643 138.497 154.524 142.052 154.524Z" fill="#FBBEBE"/>
<path d="M156.304 154.524C159.859 154.524 162.74 151.643 162.74 148.088C162.74 144.533 159.859 141.651 156.304 141.651C152.749 141.651 149.867 144.533 149.867 148.088C149.867 151.643 152.749 154.524 156.304 154.524Z" fill="#FBBEBE"/>
<path d="M196.037 162.591H107.607C106.575 162.59 105.585 162.179 104.855 161.449C104.125 160.719 103.714 159.73 103.713 158.697V105.05C103.714 104.018 104.125 103.028 104.855 102.298C105.585 101.568 106.575 101.157 107.607 101.156H196.037C197.069 101.157 198.059 101.568 198.789 102.298C199.519 103.028 199.93 104.018 199.931 105.05V158.697C199.93 159.73 199.519 160.719 198.789 161.449C198.059 162.179 197.069 162.59 196.037 162.591Z" fill="#3F3D56"/>
<path d="M151.608 134.449C153.031 134.449 154.184 133.296 154.184 131.873C154.184 130.45 153.031 129.296 151.608 129.296C150.185 129.296 149.031 130.45 149.031 131.873C149.031 133.296 150.185 134.449 151.608 134.449Z" fill="white"/>
<path d="M296.517 151.77H0V160.882H17.5386V163H278.985V160.882H296.517V151.77Z" fill="#2F2E41"/>
<path d="M127.184 42.3696C123.352 42.3696 120.246 39.0109 120.246 34.8677V31.1168C120.246 26.9736 123.352 23.6149 127.184 23.6149L127.184 42.3696Z" fill="#6C63FF"/>
<path d="M171.471 23.6149C175.303 23.6149 178.409 26.9736 178.409 31.1168V34.8677C178.409 39.0109 175.303 42.3696 171.471 42.3696V23.6149Z" fill="#6C63FF"/>
<path d="M175.104 31.7061H174.003C174.003 16.611 162.645 4.33011 148.684 4.33011C134.723 4.33011 123.365 16.611 123.365 31.7061H122.264C122.264 15.9546 134.116 3.13986 148.684 3.13986C163.252 3.13987 175.104 15.9546 175.104 31.7061Z" fill="#6C63FF"/>
<path d="M257 66C257 72.6304 254.366 78.9892 249.678 83.6777C244.989 88.3661 238.63 91 232 91C225.37 91 219.011 88.3661 214.322 83.6777C209.634 78.9892 207 72.6304 207 66C207 65.2076 207.038 64.4279 207.11 63.6567C207.713 57.2577 210.756 51.3365 215.61 47.1226C220.463 42.9088 226.753 40.726 233.173 41.0276C239.593 41.3291 245.651 44.0918 250.088 48.742C254.525 53.3922 257 59.5726 257 66Z" fill="#E6E6E6"/>
<path d="M239.446 67.661C238.84 66.8642 238.043 66.2332 237.128 65.8262C236 65.3508 234.835 64.9682 233.645 64.6821V57.877C235.475 58.1529 237.19 58.9352 238.598 60.1355L239.98 57.1906C239.185 56.4828 238.273 55.9193 237.285 55.5254C236.189 55.0817 235.039 54.7867 233.865 54.6482V51.1991H230.666V54.6821C229.431 54.8209 228.239 55.221 227.171 55.8559C226.205 56.4273 225.392 57.224 224.802 58.1779C224.238 59.1088 223.946 60.1787 223.959 61.2669C223.904 62.4461 224.245 63.6097 224.929 64.572C225.558 65.4051 226.39 66.0642 227.344 66.4872C228.49 66.9767 229.675 67.3693 230.887 67.661V74.1822C228.728 74.0193 226.671 73.1985 224.993 71.8305L223.611 74.7796C224.55 75.5553 225.617 76.1605 226.764 76.5678C228.021 77.0176 229.334 77.2914 230.666 77.3813V80.8008H233.865V77.3178C235.642 77.1236 237.309 76.3595 238.615 75.1398C239.191 74.5879 239.645 73.9226 239.95 73.1859C240.255 72.4492 240.404 71.6572 240.387 70.8601C240.44 69.7185 240.109 68.5921 239.446 67.661ZM230.887 63.9618C230.107 63.7255 229.383 63.3366 228.755 62.8177C228.507 62.5965 228.31 62.3229 228.18 62.0167C228.049 61.7105 227.988 61.3791 228.001 61.0465C227.978 60.2918 228.255 59.5588 228.772 59.0084C229.345 58.431 230.085 58.0472 230.887 57.9109V63.9618ZM235.654 72.9788C235.113 73.5332 234.409 73.8999 233.645 74.0254V68.4152C234.375 68.6112 235.059 68.9527 235.654 69.4194C235.879 69.6121 236.058 69.8531 236.178 70.1245C236.298 70.3959 236.354 70.6908 236.344 70.9872C236.374 71.7145 236.127 72.4259 235.654 72.9788Z" fill="#6C63FF"/>
<path d="M68.1003 118.031L67.6545 115.612C66.2614 115.843 64.7442 115.678 63.7945 115.232L64.0743 113.522C65.0427 113.938 66.6464 114.113 67.9872 113.866C69.6888 113.553 70.6519 112.361 70.4001 110.994C70.1573 109.676 69.0737 109.034 67.1672 108.642C64.5472 108.135 63.1082 107.259 62.7241 105.174C62.3577 103.186 63.3562 101.442 65.4946 100.676L65.0488 98.2567L66.2611 98.0334L66.6893 100.357C68.1359 100.14 69.1877 100.342 69.9587 100.622L69.6498 102.313C68.6893 101.921 67.6349 101.82 66.6176 102.023C64.7725 102.363 64.5548 103.544 64.7313 104.502C64.9607 105.747 65.6879 106.258 67.9316 106.739C70.5853 107.29 72.3334 108.256 72.7263 110.389C73.0751 112.282 72.0841 114.297 69.6922 115.159L70.1518 117.653L68.1003 118.031Z" fill="#6C63FF"/>
</g>
<defs>
<clipPath id="clip0_1059_2367">
<rect width="296.517" height="163" fill="white"/>
</clipPath>
</defs>
</svg>
